ply
format ascii 1.0
element vertex 5
property float x
property float y
property float z
property uchar red
property uchar green
property uchar blue
property uchar alpha
property float scale_x
property float scale_y
property float scale_z
property float rot_x
property float rot_y
property float rot_z
end_header
1.0 0.0 1.0 255 0 0 255 1.0 1.5 1.0 0.0 0.0 -22.5
1.0 0.0 2.0 0 255 0 255 1.5 1.0 1.0 0.0 0.0 22.5
1.0 0.0 3.0 0 0 255 255 1.0 0.5 1.0 -22.5 0.0 0.0
1.0 0.0 4.0 0 0 0 255 1.0 1.0 1.0 0.0 0.0 22.5
1.0 0.0 5.0 0 0 0 0 1.0 1.0 1.0 -0.0 -0.0 0.0